<?xml version="1.0" encoding="UTF-8"?>
<svg width="700pt" height="700pt" version="1.1" viewBox="0 0 700 700" xmlns="http://www.w3.org/2000/svg">
 <g>
  <path d="m350 385c27.848 0 54.555-11.062 74.246-30.754s30.754-46.398 30.754-74.246-11.062-54.555-30.754-74.246-46.398-30.754-74.246-30.754-54.555 11.062-74.246 30.754-30.754 46.398-30.754 74.246c0.027344 27.84 11.098 54.531 30.785 74.215 19.684 19.688 46.375 30.758 74.215 30.785zm0-175c18.566 0 36.371 7.375 49.496 20.504 13.129 13.125 20.504 30.93 20.504 49.496s-7.375 36.371-20.504 49.496c-13.125 13.129-30.93 20.504-49.496 20.504s-36.371-7.375-49.496-20.504c-13.129-13.125-20.504-30.93-20.504-49.496s7.375-36.371 20.504-49.496c13.125-13.129 30.93-20.504 49.496-20.504z"/>
  <path d="m169.75 340.46 16.66 4.1641v0.003906c1.0352 0.46484 1.8125 1.3594 2.1367 2.4492 0.42969 0.93359 0.42969 2.0078 0 2.9375l-8.75 14.719c-7.168 11.91-10.137 25.879-8.4375 39.672s7.9727 26.621 17.816 36.438l0.35156 0.35156-0.003906-0.003906c9.832 9.7188 22.621 15.883 36.344 17.523 13.727 1.6406 27.605-1.332 39.449-8.457l14.719-8.75c1.043-0.41797 2.2188-0.34766 3.2031 0.19141 1 0.32031 1.8008 1.0742 2.1875 2.0469l4.1641 16.66c4.5391 18.102 16.949 33.215 33.816 41.191 16.867 7.9766 36.422 7.9766 53.293 0 16.867-7.9766 29.277-23.09 33.816-41.191l4.1641-16.641c0.19141-0.76953 1.0312-1.5586 2.4492-2.1523 0.93359-0.43359 2.0078-0.43359 2.9414 0l14.719 8.75c11.84 7.125 25.715 10.105 39.438 8.4688 13.723-1.6406 26.508-7.8008 36.336-17.516l0.36719-0.36719c9.8438-9.8164 16.113-22.645 17.816-36.438 1.6992-13.797-1.2695-27.762-8.4375-39.672l-8.75-14.719c-0.42969-1.0469-0.35156-2.2344 0.21094-3.2188 0.32031-0.98828 1.0664-1.7852 2.0312-2.168l16.66-4.1641v-0.003906c13.477-3.3906 25.434-11.199 33.957-22.176 8.5273-10.977 13.133-24.492 13.082-38.391 0.011719-13.906-4.6367-27.414-13.203-38.371-8.5625-10.953-20.551-18.727-34.047-22.074l-16.66-4.1641c-1.0312-0.46484-1.8086-1.3516-2.1367-2.4336-0.43359-0.9375-0.43359-2.0195 0-2.957l8.75-14.719c7.168-11.91 10.137-25.875 8.4375-39.672-1.6992-13.793-7.9727-26.621-17.816-36.434l-0.35156-0.35156h0.003906c-9.8281-9.7227-22.617-15.895-36.344-17.535-13.727-1.6406-27.609 1.3398-39.449 8.4727l-14.719 8.75c-2.1016 0.64844-4.3672-0.29297-5.3906-2.2422l-4.1133-16.52c-4.5391-18.098-16.945-33.211-33.816-41.188-16.867-7.9766-36.422-7.9766-53.289 0-16.871 7.9766-29.277 23.09-33.816 41.188l-4.1641 16.641c-0.19141 0.76953-1.0312 1.5586-2.4492 2.1523l-0.003906 0.003906c-0.93359 0.42969-2.0078 0.42969-2.9375 0l-14.719-8.75c-11.84-7.1289-25.719-10.109-39.438-8.4688-13.723 1.6367-26.508 7.8008-36.34 17.516l-0.36719 0.36719c-9.8398 9.8125-16.113 22.641-17.812 36.434-1.7031 13.797 1.2695 27.762 8.4336 39.672l8.75 14.719c0.42969 1.0469 0.35156 2.2344-0.21094 3.2188-0.32031 0.98828-1.0625 1.7852-2.0273 2.1719l-16.66 4.1641c-18.102 4.5391-33.215 16.949-41.191 33.816-7.9766 16.867-7.9766 36.422 0 53.293 7.9766 16.867 23.09 29.277 41.191 33.816zm8.4688-86.977 16.641-4.1484 0.003906 0.003906c11.719-3.2031 21.297-11.645 25.945-22.867 4.6523-11.219 3.8516-23.961-2.1641-34.516l-8.75-14.719c-3.1055-5.168-4.4102-11.227-3.707-17.215 0.70312-5.9922 3.375-11.582 7.5938-15.895l0.26172-0.26172c4.293-4.2891 9.8945-7.0234 15.918-7.7695 6.0234-0.74609 12.121 0.54297 17.332 3.6562l14.719 8.75c10.547 6.0195 23.289 6.8203 34.512 2.1719 11.219-4.6484 19.664-14.223 22.867-25.938l4.1484-16.641c1.9922-7.9336 7.4336-14.562 14.832-18.059 7.3945-3.4961 15.969-3.4961 23.363 0 7.3984 3.4961 12.84 10.125 14.832 18.059l4.1484 16.66h-0.003906c3.2148 11.711 11.656 21.281 22.875 25.926 11.223 4.6445 23.957 3.8477 34.508-2.1602l14.719-8.75c5.2188-3.1367 11.336-4.4375 17.379-3.6914 6.043 0.74219 11.66 3.4922 15.957 7.8047l0.26172 0.26172h0.003906c4.2188 4.3125 6.8867 9.8984 7.5898 15.891 0.70312 5.9922-0.60156 12.047-3.707 17.219l-8.75 14.719c-6.0234 10.547-6.8281 23.289-2.1797 34.516 4.6484 11.223 14.227 19.664 25.945 22.867l16.641 4.1484v-0.003906c7.9375 1.9922 14.562 7.4336 18.059 14.832 3.4961 7.3945 3.4961 15.969 0 23.363-3.4961 7.3984-10.121 12.84-18.059 14.832l-16.641 4.1484v-0.003907c-11.719 3.2031-21.297 11.645-25.949 22.867-4.6484 11.223-3.8516 23.965 2.168 34.516l8.75 14.719c3.1055 5.1719 4.4102 11.227 3.707 17.219-0.70312 5.9922-3.375 11.578-7.5938 15.891l-0.26172 0.26172c-4.3008 4.3086-9.918 7.0547-15.961 7.8008-6.043 0.74609-12.16-0.55078-17.375-3.6875l-14.719-8.75c-10.551-6.0156-23.289-6.8164-34.512-2.1719-11.223 4.6484-19.664 14.223-22.871 25.938l-4.1484 16.641v0.003906c-1.9922 7.9336-7.4336 14.559-14.828 18.055-7.3984 3.4961-15.969 3.4961-23.367 0-7.3945-3.4961-12.836-10.121-14.828-18.055l-4.1484-16.66c-3.043-11.809-11.551-21.449-22.891-25.938-4.8438-2.0508-10.051-3.1172-15.312-3.1328-6.7734-0.03125-13.43 1.7812-19.25 5.25l-14.719 8.75c-5.207 3.1211-11.305 4.4102-17.332 3.6641-6.0234-0.74609-11.625-3.4805-15.918-7.7773l-0.26172-0.26172c-4.2188-4.3086-6.8867-9.8984-7.5898-15.891-0.70312-5.9922 0.59766-12.047 3.707-17.219l8.75-14.719c6.0234-10.547 6.8281-23.289 2.1797-34.516-4.6484-11.223-14.227-19.664-25.945-22.863l-16.641-4.1484h-0.003906c-7.9336-1.9922-14.559-7.4336-18.055-14.832-3.4961-7.3945-3.4961-15.969 0-23.363 3.4961-7.3984 10.121-12.84 18.055-14.832z"/>
 </g>
</svg>
