<?xml version="1.0" encoding="UTF-8"?>
<svg width="700pt" height="700pt" version="1.1" viewBox="0 0 700 700" xmlns="http://www.w3.org/2000/svg">
 <g>
  <path d="m472.5 175c0 67.656-54.844 122.5-122.5 122.5s-122.5-54.844-122.5-122.5 54.844-122.5 122.5-122.5 122.5 54.844 122.5 122.5"/>
  <path d="m175 507.5h350c5.3125 0.003906 10.336-2.4023 13.66-6.543 3.3242-4.1445 4.5898-9.5703 3.4375-14.754l-22.75-102.69c-4.2422-19.488-15.051-36.93-30.617-49.402-15.566-12.469-34.941-19.219-54.887-19.109h-167.69c-19.934-0.089844-39.297 6.668-54.848 19.141-15.551 12.473-26.348 29.91-30.586 49.391l-22.75 102.67c-1.1484 5.1719 0.10547 10.586 3.4141 14.727 3.3086 4.1367 8.3164 6.5547 13.613 6.5703z"/>
 </g>
</svg>
